<svg  height="126" viewBox="0 0 2602 126" fill="none" xmlns="http://www.w3.org/2000/svg">
<path d="M859 90.8625C859 90.8625 838.5 92.8624 790 96.8625C741.5 100.863 716.72 103.53 669 100.863C544.755 93.0553 484 85.3628 382 61.3628C314.341 45.4429 290.5 33.8627 233 25.8627C175.5 17.8628 78.3178 23.3454 1 58.3626V125.363L1600.86 108.869C1570.5 76.8629 1494.5 29.3629 1440 17.3628C1384.65 5.1744 1319.98 -4.75912 1259.5 4.86279C1171.5 18.8628 1084.5 46.3628 1047.5 55.8628C1010.5 65.3628 922.5 86.3627 859 90.8625Z" fill="white"/>
<path d="M2600.86 108.869C1570.5 76.8629 1494.5 29.3629 2440 17.3628C1384.65 5.2744 1319.98 -4.75912 1259.5 4.86279C1171.5 18.8628 1084.5 46.3628 1047.5 55.8628C1010.5 65.3628 922.5 86.3627 859 90.8625C859 90.8625 838.5 92.8624 790 96.8625C741.5 100.863 716.72 103.53 669 100.863C544.755 93.0553 484 85.3628 382 61.3628C314.341 45.4429 290.5 33.8627 233 25.8627C175.5 17.8628 78.3178 23.3454 1 58.3626V125.363L1601.5 108.863" stroke="white"/>
</svg>
